<svg xmlns="http://www.w3.org/2000/svg" viewBox="0 0 20 20">
                                  <defs/>
                                  <path d="M12.1 13.4c-.6.4-1.4.6-2.1.6-.7 0-1.5-.2-2.1-.6-.1-.1-.2-.1-.3 0-.1.1-.1.3 0 .4.7.5 1.6.8 2.5.8.9 0 1.8-.2 2.5-.8.1-.1.1-.3 0-.4-.2-.1-.4-.1-.5 0z"/>
                                  <circle cx="7.7" cy="11" r="1"/>
                                  <path d="M10 0C4.5 0 0 4.5 0 10s4.5 10 10 10 10-4.5 10-10S15.5 0 10 0zm5.9 11.3v.4c0 2.2-2.6 4.1-5.8 4.1-3.2 0-5.8-1.8-5.8-4.1v-.4c-.1-.1-.3-.2-.4-.3-.7-.5-.7-1.4-.2-2 .6-.6 1.5-.6 2.1-.1C7 8.2 8.3 7.7 9.7 7.7l.7-3.5c0-.2.2-.3.4-.2l2.5.5c.1-.3.4-.5.7-.5.5-.1 1 .3 1.1.9.1.5-.3 1-.9 1.1s-1-.3-1.1-.9L11 4.7l-.7 3.1c1.4 0 2.7.5 3.9 1.2.3-.2.6-.4 1-.4.8 0 1.5.6 1.5 1.4 0 .6-.3 1.1-.8 1.3z"/>
                                  <path d="M12.3 10c-.6 0-1 .4-1 1s.4 1 1 1h.1c.6 0 1-.5 1-1-.1-.5-.5-1-1.1-1z"/>
                                </svg>